# xmcd
#
# Track frame offsets:
#	150
#	21125
#	39587
#	56987
#	74535
#	91177
#	109510
#	122532
#	142777
#	164017
#	185462
#	207282
#
# Disc length: 3037 seconds
#
# Revision: 1
# Processed by: cddbd v1.5.1PL0 Copyright (c) Steve Scherf et al.
# Submitted via: CDex 1.50Beta5
#
DISCID=a50bdb0c
DTITLE=LIFE - Life
DYEAR=2003
DGENRE=Rock
TTITLE0=咲くように
TTITLE1=Fear
TTITLE2=In this life
TTITLE3=pain
TTITLE4=chain
TTITLE5=何も言えない
TTITLE6=ショウケース
TTITLE7=believe in me
TTITLE8=calling
TTITLE9=blue
TTITLE10=Home
TTITLE11=アオイアサ
EXTD=
EXTT0=
EXTT1=
EXTT2=
EXTT3=
EXTT4=
EXTT5=
EXTT6=
EXTT7=
EXTT8=
EXTT9=
EXTT10=
EXTT11=
PLAYORDER=
